<svg width="24" height="24" viewBox="0 0 24 24" fill="none" xmlns="http://www.w3.org/2000/svg">
<path d="M17 17H21M19 15V19" stroke="white" stroke-width="2" stroke-linecap="round" stroke-linejoin="round"/>
<path d="M14 13.29C13.3511 13.0959 12.6773 12.9982 12 13H10C8.14348 13 6.36301 13.7375 5.05025 15.0503C3.7375 16.363 3 18.1435 3 20C3 20.2652 3.10536 20.5196 3.29289 20.7071C3.48043 20.8947 3.73478 21 4 21H15" stroke="white" stroke-width="2" stroke-linecap="round" stroke-linejoin="round"/>
<path d="M11 13C13.7614 13 16 10.7614 16 8C16 5.23858 13.7614 3 11 3C8.23858 3 6 5.23858 6 8C6 10.7614 8.23858 13 11 13Z" stroke="white" stroke-width="2" stroke-linecap="round" stroke-linejoin="round"/>
</svg>
