<svg width="24" height="30" viewBox="0 0 24 30" fill="none" xmlns="http://www.w3.org/2000/svg">
<g clip-path="url(#clip0_1705_3058)">
<path d="M12.0253 3.63733C7.88773 3.63733 4.52523 6.99983 4.52523 11.1373V14.7498C4.52523 15.5123 4.20023 16.6748 3.81273 17.3248L2.37523 19.7123C1.48773 21.1873 2.10023 22.8248 3.72523 23.3748C9.11273 25.1748 14.9253 25.1748 20.3128 23.3748C21.8253 22.8748 22.4878 21.0873 21.6628 19.7123L20.2253 17.3248C19.8503 16.6748 19.5253 15.5123 19.5253 14.7498V11.1373C19.5253 7.01233 16.1503 3.63733 12.0253 3.63733Z" stroke="white" stroke-width="3" stroke-miterlimit="10" stroke-linecap="round"/>
<path d="M14.3379 3.99993C13.9504 3.88743 13.5504 3.79993 13.1379 3.74993C11.9379 3.59993 10.7879 3.68743 9.71289 3.99993C10.0754 3.07493 10.9754 2.42493 12.0254 2.42493C13.0754 2.42493 13.9754 3.07493 14.3379 3.99993Z" stroke="white" stroke-width="3" stroke-miterlimit="10" stroke-linecap="round" stroke-linejoin="round"/>
<path d="M15.7754 23.8251C15.7754 25.8876 14.0879 27.5751 12.0254 27.5751C11.0004 27.5751 10.0504 27.1501 9.37539 26.4751C8.70039 25.8001 8.27539 24.8501 8.27539 23.8251" stroke="white" stroke-width="3" stroke-miterlimit="10"/>
</g>
<defs>
<clipPath id="clip0_1705_3058">
<rect width="24" height="30" fill="white"/>
</clipPath>
</defs>
</svg>
