<svg width="21" height="21" viewBox="0 0 21 21" fill="none" xmlns="http://www.w3.org/2000/svg">
<g clip-path="url(#clip0_1706_3388)">
<path d="M9.44813 0.900468C8.26299 0.912203 7.12205 1.35201 6.23566 2.13879C5.34928 2.92557 4.77723 4.00628 4.62498 5.18166C4.47273 6.35705 4.75054 7.54784 5.4072 8.5345C6.06387 9.52116 7.0551 10.2372 8.19813 10.5505C8.84965 9.55011 9.73056 8.71973 10.7676 8.12836C11.8047 7.537 12.9679 7.20174 14.1606 7.15047C14.295 6.71707 14.3665 6.26666 14.3731 5.81297C14.3731 5.1668 14.2457 4.52697 13.998 3.93014C13.7503 3.33332 13.3874 2.79121 12.9299 2.33488C12.4724 1.87855 11.9294 1.51696 11.3319 1.27082C10.7344 1.02468 10.0943 0.898823 9.44813 0.900468ZM7.32313 12.3005H6.32313C4.83332 12.307 3.4064 12.9018 2.35293 13.9553C1.29946 15.0087 0.704712 16.4357 0.698135 17.9255C0.685257 18.0835 0.685257 18.2424 0.698135 18.4005H7.96063C7.29968 17.2611 6.95047 15.9677 6.94813 14.6505C6.9508 13.8525 7.07731 13.0597 7.32313 12.3005Z" fill="#181818"/>
<path d="M10.9624 17.8609C11.8673 18.7658 13.1173 19.3254 14.498 19.3254C17.2594 19.3254 19.498 17.0868 19.498 14.3254C19.498 12.9447 18.9384 11.6947 18.0335 10.7898M10.9624 17.8609C10.0577 16.9561 9.49805 15.7062 9.49805 14.3254C9.49805 11.5641 11.7367 9.32544 14.498 9.32544C15.8788 9.32544 17.1287 9.88506 18.0335 10.7898M10.9624 17.8609L18.0335 10.7898" stroke="#181818" stroke-width="2" stroke-linejoin="round"/>
</g>
<defs>
<clipPath id="clip0_1706_3388">
<rect width="20" height="20" fill="white" transform="translate(0.698242 0.900452)"/>
</clipPath>
</defs>
</svg>
