<svg width="31" height="31" viewBox="0 0 31 31" fill="none" xmlns="http://www.w3.org/2000/svg">
<path d="M15.1123 13.4005C17.8737 13.4005 20.1123 11.1619 20.1123 8.40045C20.1123 5.63903 17.8737 3.40045 15.1123 3.40045C12.3509 3.40045 10.1123 5.63903 10.1123 8.40045C10.1123 11.1619 12.3509 13.4005 15.1123 13.4005Z" stroke="white"/>
<path d="M18.8623 17.5593C17.7043 17.2957 16.4384 17.1505 15.1123 17.1505C9.58945 17.1505 5.1123 19.6688 5.1123 22.7755C5.1123 25.8821 5.1123 28.4005 15.1123 28.4005C22.2216 28.4005 24.2767 27.1276 24.8708 25.2755" stroke="white"/>
<path d="M19.0767 24.436C19.9816 25.3408 21.2316 25.9005 22.6123 25.9005C25.3737 25.9005 27.6123 23.6618 27.6123 20.9005C27.6123 19.5197 27.0527 18.2697 26.1478 17.3648M19.0767 24.436C18.1719 23.5311 17.6123 22.2812 17.6123 20.9005C17.6123 18.1391 19.8509 15.9005 22.6123 15.9005C23.9931 15.9005 25.2429 16.4601 26.1478 17.3648M19.0767 24.436L26.1478 17.3648" stroke="white" stroke-linejoin="round"/>
</svg>
