<svg width="21" height="21" viewBox="0 0 21 21" fill="none" xmlns="http://www.w3.org/2000/svg">
<g clip-path="url(#clip0_1706_3392)">
<path d="M9.44813 0.900468C8.26299 0.912203 7.12205 1.35201 6.23566 2.13879C5.34928 2.92557 4.77723 4.00628 4.62498 5.18166C4.47273 6.35705 4.75054 7.54784 5.4072 8.5345C6.06387 9.52116 7.0551 10.2372 8.19813 10.5505C8.84965 9.55011 9.73056 8.71973 10.7676 8.12836C11.8047 7.537 12.9679 7.20174 14.1606 7.15047C14.295 6.71707 14.3665 6.26666 14.3731 5.81297C14.3731 5.1668 14.2457 4.52697 13.998 3.93014C13.7503 3.33332 13.3874 2.79121 12.9299 2.33488C12.4724 1.87855 11.9294 1.51696 11.3319 1.27082C10.7344 1.02468 10.0943 0.898823 9.44813 0.900468ZM7.32313 12.3005H6.32313C4.83332 12.307 3.4064 12.9018 2.35293 13.9553C1.29946 15.0087 0.704712 16.4357 0.698135 17.9255C0.685257 18.0835 0.685257 18.2424 0.698135 18.4005H7.96063C7.29968 17.2611 6.95047 15.9677 6.94813 14.6505C6.9508 13.8525 7.07731 13.0597 7.32313 12.3005Z" fill="#181818"/>
<path d="M18.8728 10.2255C17.9981 9.35296 16.8844 8.75927 15.6725 8.51939C14.4605 8.27952 13.2047 8.40421 12.0636 8.87772C10.9224 9.35123 9.94726 10.1523 9.2612 11.1798C8.57514 12.2072 8.20898 13.415 8.20898 14.6505C8.20898 15.8859 8.57514 17.0937 9.2612 18.1211C9.94726 19.1486 10.9224 19.9497 12.0636 20.4232C13.2047 20.8967 14.4605 21.0214 15.6725 20.7815C16.8844 20.5416 17.9981 19.948 18.8728 19.0755C19.4549 18.4949 19.9166 17.8052 20.2317 17.0459C20.5468 16.2866 20.709 15.4725 20.709 14.6505C20.709 13.8284 20.5468 13.0143 20.2317 12.255C19.9166 11.4957 19.4549 10.806 18.8728 10.2255ZM17.9853 18.188C17.2858 18.8867 16.3949 19.3623 15.4252 19.5548C14.4554 19.7473 13.4503 19.6479 12.537 19.2693C11.6237 18.8907 10.8432 18.2499 10.294 17.4277C9.74485 16.6056 9.45175 15.6391 9.45175 14.6505C9.45175 13.6618 9.74485 12.6953 10.294 11.8732C10.8432 11.0511 11.6237 10.4102 12.537 10.0316C13.4503 9.65299 14.4554 9.55365 15.4252 9.74612C16.3949 9.9386 17.2858 10.4142 17.9853 11.113C18.4502 11.5773 18.819 12.1288 19.0706 12.7358C19.3222 13.3427 19.4517 13.9934 19.4517 14.6505C19.4517 15.3075 19.3222 15.9582 19.0706 16.5652C18.819 17.1721 18.4502 17.7236 17.9853 18.188ZM16.8103 11.1505L14.4478 13.513L12.0853 11.1505L10.9478 12.288L13.3103 14.6505L10.9478 17.013L12.0853 18.1505L14.4478 15.788L16.8103 18.1505L17.9478 17.013L15.5853 14.6505L17.9478 12.288L16.8103 11.1505Z" fill="#181818"/>
</g>
<defs>
<clipPath id="clip0_1706_3392">
<rect width="20" height="20" fill="white" transform="translate(0.698242 0.900452)"/>
</clipPath>
</defs>
</svg>
