<svg width="25" height="25" viewBox="0 0 25 25" fill="none" xmlns="http://www.w3.org/2000/svg">
<path fill-rule="evenodd" clip-rule="evenodd" d="M12.4399 1.30206H12.5595C14.964 1.30205 16.8484 1.30204 18.3187 1.49972C19.8236 1.70205 21.0112 2.12428 21.9433 3.05638C22.8754 3.98847 23.2976 5.17599 23.5 6.68093C23.6976 8.15122 23.6976 10.0356 23.6976 12.4402V12.5598C23.6976 14.9644 23.6976 16.8487 23.5 18.319C23.2976 19.8239 22.8754 21.0115 21.9433 21.9436C21.0112 22.8757 19.8236 23.2979 18.3187 23.5003C16.8484 23.6979 14.964 23.6979 12.5595 23.6979H12.4399C10.0353 23.6979 8.15091 23.6979 6.68062 23.5003C5.17568 23.2979 3.98816 22.8757 3.05607 21.9436C2.12398 21.0115 1.70175 19.8239 1.49941 18.319C1.30174 16.8487 1.30175 14.9644 1.30176 12.5598V12.4402C1.30175 10.0356 1.30174 8.15122 1.49941 6.68093C1.70175 5.17599 2.12398 3.98847 3.05607 3.05638C3.98816 2.12428 5.17568 1.70205 6.68062 1.49972C8.15091 1.30204 10.0353 1.30205 12.4399 1.30206ZM6.88882 3.04828C5.55714 3.22732 4.75431 3.56783 4.16092 4.16123C3.56753 4.75462 3.22702 5.55745 3.04798 6.88913C2.86591 8.24327 2.86426 10.0227 2.86426 12.5C2.86426 14.9773 2.86591 16.7566 3.04798 18.1108C3.22702 19.4425 3.56753 20.2453 4.16092 20.8387C4.75431 21.4322 5.55714 21.7727 6.88882 21.9516C8.24297 22.1337 10.0224 22.1354 12.4997 22.1354C14.977 22.1354 16.7563 22.1337 18.1105 21.9516C19.4422 21.7727 20.245 21.4322 20.8384 20.8387C21.4319 20.2453 21.7724 19.4425 21.9513 18.1108C22.1334 16.7566 22.1351 14.9773 22.1351 12.5C22.1351 10.0227 22.1334 8.24327 21.9513 6.88913C21.7724 5.55745 21.4319 4.75462 20.8384 4.16123C20.245 3.56783 19.4422 3.22732 18.1105 3.04828C16.7563 2.86622 14.977 2.86456 12.4997 2.86456C10.0224 2.86456 8.24297 2.86622 6.88882 3.04828ZM12.4997 9.11456C10.63 9.11456 9.11426 10.6303 9.11426 12.5C9.11426 14.3697 10.63 15.8854 12.4997 15.8854C14.3694 15.8854 15.8851 14.3697 15.8851 12.5C15.8851 10.6303 14.3694 9.11456 12.4997 9.11456ZM7.55176 12.5C7.55176 9.76732 9.76702 7.55206 12.4997 7.55206C15.2324 7.55206 17.4476 9.76732 17.4476 12.5C17.4476 15.2327 15.2324 17.4479 12.4997 17.4479C9.76702 17.4479 7.55176 15.2327 7.55176 12.5Z" fill="white"/>
</svg>
