<svg width="21" height="23" viewBox="0 0 21 23" fill="none" xmlns="http://www.w3.org/2000/svg">
<path fill-rule="evenodd" clip-rule="evenodd" d="M10.6396 3.31914C6.90567 3.31914 3.43965 5.80587 3.43965 9.68613C3.43965 11.1145 3.78923 12.1683 4.41392 13.011C5.05068 13.87 6.02936 14.5853 7.41429 15.2261L8.14899 15.566L7.89346 16.3407C7.52681 17.4524 6.90462 18.4736 6.27605 19.3134C8.44785 18.6238 11.2847 17.5573 13.2904 16.2058C15.2792 14.866 16.3969 13.8113 17.0288 12.8287C17.6379 11.8817 17.8396 10.9332 17.8396 9.68613C17.8396 5.80587 14.3737 3.31914 10.6396 3.31914ZM1.63965 9.68613C1.63965 4.47069 6.27363 1.5 10.6396 1.5C15.0056 1.5 19.6396 4.47069 19.6396 9.68613C19.6396 11.1678 19.3914 12.4932 18.538 13.8201C17.7074 15.1114 16.3501 16.3307 14.2889 17.7195C11.6099 19.5244 7.72895 20.804 5.5076 21.4451C4.77763 21.6558 4.19614 21.2229 3.94584 20.7721C3.69928 20.3279 3.63843 19.6417 4.10937 19.1106C4.7396 18.3996 5.43048 17.4841 5.89319 16.4962C4.69995 15.8567 3.70358 15.0868 2.97335 14.1016C2.07871 12.8948 1.63965 11.4412 1.63965 9.68613Z" fill="white"/>
</svg>
