<svg width="25" height="25" viewBox="0 0 25 25" fill="none" xmlns="http://www.w3.org/2000/svg">
<path d="M12.5 2.08301C18.2529 2.08301 22.917 6.74705 22.917 12.5C22.917 18.2529 18.2529 22.917 12.5 22.917C6.74711 22.9169 2.08398 18.2529 2.08398 12.5C2.08401 6.7471 6.74712 2.0831 12.5 2.08301ZM12.5 7.55176C12.0687 7.55176 11.7189 7.90171 11.7188 8.33301V12.5C11.7188 12.7072 11.8007 12.9063 11.9473 13.0527L14.5518 15.6562C14.8569 15.9614 15.3511 15.9614 15.6562 15.6562C15.9613 15.3511 15.9613 14.8569 15.6562 14.5518L13.2812 12.1768V8.33301C13.2811 7.90171 12.9313 7.55176 12.5 7.55176Z" fill="white"/>
</svg>
