<svg width="24" height="25" viewBox="0 0 24 25" fill="none" xmlns="http://www.w3.org/2000/svg">
<g clip-path="url(#clip0_1705_3113)">
<path d="M0.90625 12C0.90625 14.8467 2.03708 17.5767 4.04997 19.5896C6.06286 21.6025 8.79293 22.7333 11.6396 22.7333C14.4862 22.7333 17.2163 21.6025 19.2292 19.5896C21.2421 17.5767 22.3729 14.8467 22.3729 12C22.3729 9.15334 21.2421 6.42327 19.2292 4.41038C17.2163 2.39749 14.4862 1.26666 11.6396 1.26666C8.79293 1.26666 6.06286 2.39749 4.04997 4.41038C2.03708 6.42327 0.90625 9.15334 0.90625 12Z" fill="#FDD821"/>
<path d="M11.6396 1.26666C17.5674 1.26666 22.3729 6.07222 22.3729 12C22.3729 17.9278 17.5674 22.7333 11.6396 22.7333C5.7118 22.7333 0.90625 17.9278 0.90625 12C0.90625 6.07222 5.7118 1.26666 11.6396 1.26666ZM11.6396 1.86296C6.04096 1.86296 1.50255 6.40137 1.50255 12C1.50255 17.5986 6.04096 22.137 11.6396 22.137C17.2382 22.137 21.7766 17.5986 21.7766 12C21.7766 6.40137 17.2382 1.86296 11.6396 1.86296Z" fill="#FFAD00"/>
<path d="M12.4059 4.60028C13.2048 6.71956 14.0263 8.20031 14.8697 9.04436C15.7138 9.8878 17.1921 10.7062 19.3059 11.5003C16.967 12.1412 15.4015 12.8578 14.6099 13.6488C13.8183 14.4404 13.0834 16.0242 12.4059 18.3997C11.535 15.9212 10.6879 14.2709 9.86456 13.4476C9.04124 12.6243 7.58854 11.9754 5.50586 11.5003C7.73857 10.6404 9.24432 9.82193 10.0219 9.04436C10.8001 8.26617 11.5947 6.78481 12.4059 4.60028Z" fill="#FFCE2A"/>
<path d="M19.3059 11.5003C16.967 12.1412 15.4015 12.8578 14.6099 13.6488C13.8183 14.4404 13.0834 16.0242 12.4059 18.3997C11.535 15.9212 10.6879 14.2709 9.86456 13.4476C9.04124 12.6243 7.58854 11.9754 5.50586 11.5003C7.73857 10.6404 9.24432 9.82193 10.0219 9.04436C10.8001 8.26617 11.5947 6.78481 12.4059 4.60028C13.2048 6.71956 14.0263 8.20031 14.8697 9.04436C15.7138 9.8878 17.1921 10.7062 19.3059 11.5003ZM12.4894 6.4006L12.4126 6.2274L12.3741 6.31705C11.7381 7.77584 11.1026 8.82603 10.4531 9.47553C9.83894 10.0897 8.85401 10.7038 7.48914 11.3313L7.37021 11.3844L7.39095 11.3917C8.60092 11.8016 9.52913 12.3016 10.178 12.9024L10.2957 13.0158C10.9361 13.6561 11.5655 14.7057 12.1979 16.1731L12.3558 16.5475L12.3815 16.4749C12.9035 15.0308 13.4652 13.9818 14.0812 13.3195L14.1787 13.2177C14.8343 12.5627 15.9083 11.9784 17.4104 11.4491L17.5019 11.4167L17.2714 11.3106C16.098 10.7593 15.196 10.1897 14.5617 9.59446L14.4385 9.47553C13.761 8.79736 13.1151 7.77401 12.4894 6.4006Z" fill="#FFAD00"/>
</g>
<defs>
<clipPath id="clip0_1705_3113">
<rect width="23" height="25" fill="white" transform="translate(0.639648)"/>
</clipPath>
</defs>
</svg>
