<svg width="36" height="36" viewBox="0 0 36 36" fill="none" xmlns="http://www.w3.org/2000/svg">
<path d="M9.30176 12.0671C9.35407 8.45104 9.6223 6.40096 10.9976 5.02562C12.7062 3.31708 15.4561 3.31708 20.9558 3.31708C26.4554 3.31708 29.2054 3.31708 30.9138 5.02562C32.6224 6.73417 32.6224 9.48402 32.6224 14.9837V20.8171C32.6224 26.3167 32.6224 29.0667 30.9138 30.7752C29.2054 32.4837 26.4554 32.4837 20.9558 32.4837H18.0389" stroke="white" stroke-linecap="round"/>
<path d="M3.45605 21.5462C3.45605 19.498 3.45605 18.474 3.9476 17.7384C4.1604 17.4199 4.43384 17.1465 4.75231 16.9337C5.48797 16.4421 6.51205 16.4421 8.56022 16.4421C10.6084 16.4421 11.6325 16.4421 12.3681 16.9337C12.6866 17.1465 12.96 17.4199 13.1728 17.7384C13.6644 18.474 13.6644 19.498 13.6644 21.5462V27.3796C13.6644 29.4278 13.6644 30.4518 13.1728 31.1874C12.96 31.5059 12.6866 31.7794 12.3681 31.9921C11.6325 32.4837 10.6084 32.4837 8.56022 32.4837C6.51205 32.4837 5.48797 32.4837 4.75231 31.9921C4.43384 31.7794 4.1604 31.5059 3.9476 31.1874C3.45605 30.4518 3.45605 29.4278 3.45605 27.3796V21.5462Z" stroke="white"/>
<path d="M25.3307 28.1087H18.0391" stroke="white" stroke-linecap="round"/>
</svg>
