<svg width="26" height="26" viewBox="0 0 26 26" fill="none" xmlns="http://www.w3.org/2000/svg">
<rect x="1.03906" y="0.900391" width="24" height="24" rx="12" stroke="white"/>
<path d="M12.2951 16.4004V10.0764H13.5311V16.4004H12.2951ZM12.9071 9.23639C12.6671 9.23639 12.4711 9.16439 12.3191 9.02039C12.1751 8.86839 12.1031 8.67639 12.1031 8.44439C12.1031 8.21239 12.1791 8.02439 12.3311 7.88039C12.4831 7.72839 12.6751 7.65239 12.9071 7.65239C13.1231 7.65239 13.3111 7.72839 13.4711 7.88039C13.6391 8.02439 13.7231 8.21239 13.7231 8.44439C13.7231 8.67639 13.6431 8.86839 13.4831 9.02039C13.3311 9.16439 13.1391 9.23639 12.9071 9.23639Z" fill="white"/>
</svg>
