<svg width="30" height="30" viewBox="0 0 30 30" fill="none" xmlns="http://www.w3.org/2000/svg">
<path d="M15.0253 3.63739C10.8877 3.63739 7.52523 6.99989 7.52523 11.1374V14.7499C7.52523 15.5124 7.20023 16.6749 6.81273 17.3249L5.37523 19.7124C4.48773 21.1874 5.10023 22.8249 6.72523 23.3749C12.1127 25.1749 17.9253 25.1749 23.3128 23.3749C24.8253 22.8749 25.4878 21.0874 24.6628 19.7124L23.2253 17.3249C22.8503 16.6749 22.5253 15.5124 22.5253 14.7499V11.1374C22.5253 7.01239 19.1503 3.63739 15.0253 3.63739Z" stroke="white" stroke-width="3" stroke-miterlimit="10" stroke-linecap="round"/>
<path d="M17.3379 3.99993C16.9504 3.88743 16.5504 3.79993 16.1379 3.74993C14.9379 3.59993 13.7879 3.68743 12.7129 3.99993C13.0754 3.07493 13.9754 2.42493 15.0254 2.42493C16.0754 2.42493 16.9754 3.07493 17.3379 3.99993Z" stroke="white" stroke-width="3" stroke-miterlimit="10" stroke-linecap="round" stroke-linejoin="round"/>
<path d="M18.7754 23.8251C18.7754 25.8876 17.0879 27.5751 15.0254 27.5751C14.0004 27.5751 13.0504 27.1501 12.3754 26.4751C11.7004 25.8001 11.2754 24.8501 11.2754 23.8251" stroke="white" stroke-width="3" stroke-miterlimit="10"/>
</svg>
