<svg width="36" height="36" viewBox="0 0 36 36" fill="none" xmlns="http://www.w3.org/2000/svg">
<g clip-path="url(#clip0_1706_3355)">
<path d="M17.2591 31.4005L9.69906 18.2005V16.4405H10.5791C11.9924 16.4405 13.1791 16.3071 14.1391 16.0405C15.1257 15.7738 15.8991 15.3338 16.4591 14.7205C17.0191 14.1071 17.3524 13.2671 17.4591 12.2005H9.69906V9.64045H17.4191C17.2324 8.65378 16.8591 7.85378 16.2991 7.24045C15.7391 6.60045 14.9791 6.13378 14.0191 5.84045C13.0857 5.54712 11.9391 5.40045 10.5791 5.40045H9.69906V2.84045H26.2591V5.40045H18.6991C19.3124 5.90712 19.8191 6.50712 20.2191 7.20045C20.6191 7.89378 20.8724 8.70712 20.9791 9.64045H26.2591V12.2005H21.0591C20.8724 14.1471 20.1257 15.6671 18.8191 16.7605C17.5391 17.8271 15.8324 18.5071 13.6991 18.8005L21.3391 31.4005H17.2591Z" fill="white"/>
</g>
<defs>
<clipPath id="clip0_1706_3355">
<rect width="35" height="35" fill="white" transform="translate(0.539062 0.400452)"/>
</clipPath>
</defs>
</svg>
