<svg width="33" height="30" viewBox="0 0 33 30" fill="none" xmlns="http://www.w3.org/2000/svg">
<path fill-rule="evenodd" clip-rule="evenodd" d="M22.8716 19.9423C24.5519 17.8418 25.5566 15.1774 25.5566 12.2783C25.5566 5.49718 20.0594 0 13.2783 0C6.49718 0 1 5.49718 1 12.2783C1 19.0594 6.49718 24.5566 13.2783 24.5566C16.1774 24.5566 18.8418 23.5519 20.9423 21.8716L28.671 29.6004C29.2038 30.1332 30.0676 30.1332 30.6004 29.6004C31.1332 29.0676 31.1332 28.2038 30.6004 27.671L22.8716 19.9423ZM13.2783 21.8417C7.99654 21.8417 3.71482 17.5601 3.71482 12.2783C3.71482 6.99654 7.99654 2.71482 13.2783 2.71482C18.5601 2.71482 22.8417 6.99654 22.8417 12.2783C22.8417 17.5601 18.5601 21.8417 13.2783 21.8417Z" fill="white"/>
</svg>
