<svg width="33" height="34" viewBox="0 0 33 34" fill="none" xmlns="http://www.w3.org/2000/svg">
<path d="M2 15.2891C2 14.3693 2 13.9094 2.11927 13.4859C2.22491 13.1107 2.39854 12.7579 2.6316 12.4446C2.89471 12.091 3.25992 11.8087 3.99035 11.244L14.9174 2.79616C15.4834 2.35857 15.7665 2.13977 16.079 2.05566C16.3547 1.98145 16.6453 1.98145 16.921 2.05566C17.2335 2.13977 17.5166 2.35857 18.0826 2.79616L29.0096 11.244C29.7401 11.8087 30.1053 12.091 30.3684 12.4446C30.6014 12.7579 30.7751 13.1107 30.8808 13.4859C31 13.9094 31 14.3693 31 15.2891V26.8754C31 28.6692 31 29.5661 30.6488 30.2512C30.3399 30.8538 29.8469 31.3439 29.2407 31.6509C28.5514 32 27.649 32 25.8444 32H7.15556C5.35093 32 4.44863 32 3.75937 31.6509C3.15306 31.3439 2.66012 30.8538 2.35121 30.2512C2 29.5661 2 28.6692 2 26.8754V15.2891Z" stroke="white" stroke-width="3" stroke-linecap="round" stroke-linejoin="round"/>
</svg>
