<svg width="25" height="25" viewBox="0 0 25 25" fill="none" xmlns="http://www.w3.org/2000/svg">
<path d="M16.6663 10.4167C17.8169 10.4167 18.7497 9.48393 18.7497 8.33333C18.7497 7.18274 17.8169 6.25 16.6663 6.25C15.5157 6.25 14.583 7.18274 14.583 8.33333C14.583 9.48393 15.5157 10.4167 16.6663 10.4167Z" stroke="white"/>
<path d="M2.08301 13.0209L3.90758 11.4245C4.85682 10.594 6.28747 10.6416 7.17935 11.5334L11.6478 16.0019C12.3636 16.7178 13.4905 16.8154 14.3188 16.2332L14.6295 16.015C15.8213 15.1773 17.4339 15.2744 18.5169 16.249L21.8747 19.2709" stroke="white" stroke-linecap="round"/>
<path d="M22.9163 12.5C22.9163 17.4104 22.9163 19.8657 21.3908 21.3911C19.8654 22.9166 17.4101 22.9166 12.4997 22.9166C7.58921 22.9166 5.13398 22.9166 3.6085 21.3911C2.08301 19.8657 2.08301 17.4104 2.08301 12.5C2.08301 7.58951 2.08301 5.13428 3.6085 3.6088C5.13398 2.08331 7.58921 2.08331 12.4997 2.08331C17.4101 2.08331 19.8654 2.08331 21.3908 3.6088C22.4052 4.62311 22.7451 6.04847 22.8589 8.33331" stroke="white" stroke-linecap="round"/>
</svg>
