<svg width="25" height="25" viewBox="0 0 25 25" fill="none" xmlns="http://www.w3.org/2000/svg">
<g clip-path="url(#clip0_1706_3185)">
<path d="M21.875 7.22655H20.9562C21.6 6.51093 21.9938 5.55936 21.9938 4.51561C21.9938 4.20468 21.9586 3.90233 21.893 3.61171L21.8984 3.63905C21.5563 2.30702 20.4875 1.29296 19.1492 1.03514L19.1273 1.03124C18.9664 1.0078 18.7805 0.9953 18.5914 0.9953C17.1273 0.9953 15.8469 1.78593 15.1555 2.96249L15.1453 2.98124L12.5008 6.78514L9.85703 2.98124C9.15312 1.78514 7.87266 0.9953 6.40703 0.9953C6.21875 0.9953 6.03438 1.00858 5.85313 1.03358L5.87422 1.03124C4.51406 1.29139 3.44453 2.30624 3.10859 3.61483L3.10312 3.63905C3.04219 3.90233 3.00703 4.20546 3.00703 4.51639C3.00703 5.56014 3.40078 6.51093 4.04766 7.23046L4.04453 7.22655H3.125C1.93906 7.22811 0.978125 8.18905 0.976562 9.37499V11.7187C0.979688 12.693 1.63203 13.5141 2.52422 13.7719L2.53906 13.7758V21.875C2.54063 23.0609 3.50156 24.0219 4.6875 24.0234H20.3125C21.4984 24.0219 22.4594 23.0609 22.4609 21.875V13.7758C23.3672 13.5141 24.0195 12.693 24.0234 11.7195V9.37499C24.0219 8.18905 23.0609 7.22811 21.875 7.22655ZM16.1055 3.64999C16.6023 2.76014 17.5383 2.16796 18.6125 2.16796C18.7195 2.16796 18.825 2.17421 18.9289 2.18514L18.9164 2.18436C19.8227 2.35936 20.5344 3.03671 20.7578 3.90936L20.7617 3.92577C20.7844 4.07343 20.7977 4.24374 20.7977 4.41639C20.7977 5.5828 20.2078 6.61093 19.3094 7.21952L19.2977 7.22733H13.6211L16.1055 3.64999ZM4.23906 3.92499C4.46563 3.03593 5.17734 2.35936 6.06875 2.18671L6.08359 2.18436C6.17266 2.17421 6.27656 2.16874 6.38125 2.16874C7.45703 2.16874 8.39375 2.76014 8.88594 3.63514L8.89375 3.64921L11.3797 7.22577H5.70313C4.79297 6.61014 4.20313 5.58124 4.20313 4.41561C4.20313 4.24218 4.21641 4.07264 4.24141 3.90624L4.23906 3.92499ZM2.14844 11.7187V9.37499C2.14922 8.83593 2.58594 8.39921 3.125 8.39843H11.9141V12.6953H3.125C2.58594 12.6945 2.14922 12.2578 2.14844 11.7187ZM3.71094 21.875V13.8672H11.9141V22.8516H4.6875C4.14844 22.8508 3.71172 22.4141 3.71094 21.875ZM21.2891 21.875C21.2883 22.4141 20.8516 22.8508 20.3125 22.8516H13.0859V13.8672H21.2891V21.875ZM22.8516 11.7187C22.8508 12.2578 22.4141 12.6945 21.875 12.6953H13.0859V8.39843H21.875C22.4141 8.39921 22.8508 8.83593 22.8516 9.37499V11.7187Z" fill="white"/>
</g>
<defs>
<clipPath id="clip0_1706_3185">
<rect width="25" height="25" fill="white"/>
</clipPath>
</defs>
</svg>
