<svg width="16" height="16" viewBox="0 0 16 16" fill="none" xmlns="http://www.w3.org/2000/svg">
<g clip-path="url(#clip0_1706_3403)">
<path d="M13.2057 4.48279L12.0509 4.47685C13.0702 3.85268 13.5251 2.64327 13.0726 1.64923C12.7258 0.887278 11.9122 0.400452 11.0498 0.400452C10.6841 0.400452 10.3096 0.487991 9.95818 0.679241C9.18422 1.10027 8.58656 1.69089 8.12883 2.29136C8.12077 2.30191 8.11263 2.31219 8.10463 2.32271C8.03449 2.41575 7.96811 2.50845 7.90471 2.60138C7.87901 2.63856 7.85309 2.67518 7.8278 2.71318C7.80044 2.75472 7.77539 2.79544 7.74941 2.83666C7.70271 2.90944 7.65527 2.98063 7.61007 3.05604C7.12386 2.22749 6.37131 1.28059 5.26573 0.679211C4.91432 0.487991 4.53987 0.400452 4.17416 0.400452C3.31175 0.400452 2.49817 0.887278 2.15136 1.64923C1.77445 2.4771 2.02834 3.45363 2.71219 4.11784C2.84859 4.25255 3.00144 4.37589 3.17168 4.48279H0.644531V7.61094C0.644531 7.67399 0.695625 7.72502 0.758613 7.72502H6.74189V4.50371H8.48206V7.72499H14.4654C14.5283 7.72499 14.5794 7.67396 14.5794 7.61091V4.48279H13.2057ZM5.9032 3.69532C5.20392 3.69532 4.58273 3.57404 4.05697 3.33474C3.7909 3.21365 3.57797 3.00653 3.47276 2.76653C3.42504 2.65769 3.35883 2.44473 3.45152 2.24103C3.56019 2.00229 3.86414 1.82903 4.17428 1.82903C4.31745 1.82903 4.45494 1.86439 4.58306 1.93408C5.26239 2.30361 5.77474 2.86599 6.14839 3.41574C6.20561 3.5017 6.26168 3.58991 6.31626 3.68147C6.18302 3.69017 6.04494 3.69532 5.9032 3.69532ZM11.7512 2.76653C11.6459 3.00653 11.433 3.21365 11.1669 3.33474C10.6412 3.57404 10.02 3.69532 9.32071 3.69532C9.19541 3.69532 9.07427 3.69005 8.95547 3.68308C8.93895 3.68126 8.92233 3.68068 8.90581 3.67839C9.28849 3.05079 9.8528 2.36279 10.6409 1.93408C10.769 1.86439 10.9066 1.82903 11.0498 1.82903C11.3598 1.82903 11.6637 2.00229 11.7724 2.24103C11.8652 2.4447 11.7989 2.65769 11.7512 2.76653Z" fill="white"/>
<path d="M2.34277 13.7385C2.34277 14.6564 3.08691 15.4005 4.00479 15.4005H6.74141V8.60541H2.34277V13.7385Z" fill="white"/>
<path d="M8.48242 15.4005H11.2191C12.137 15.4005 12.8811 14.6564 12.8811 13.7385V8.60541H8.48242V15.4005Z" fill="white"/>
</g>
<defs>
<clipPath id="clip0_1706_3403">
<rect width="15" height="15" fill="white" transform="translate(0.112305 0.400452)"/>
</clipPath>
</defs>
</svg>
