<svg width="19" height="21" viewBox="0 0 19 21" fill="none" xmlns="http://www.w3.org/2000/svg">
<path d="M15.0939 3.67272L9.78688 0.900452L4.47898 3.67272L0.875977 2.68264C0.875977 2.68264 0.875977 8.42522 0.875977 12.5837C0.875977 16.742 7.80668 20.9005 9.78688 20.9005C11.7671 20.9005 18.6978 16.742 18.6978 12.5836C18.6978 8.42518 18.6978 2.6826 18.6978 2.6826L15.0939 3.67272ZM16.3215 12.5836C16.3215 14.8933 11.4221 18.2407 9.78688 18.5172C8.15242 18.2407 3.25223 14.8933 3.25223 12.5836V5.7999L4.75051 6.21178L9.78688 3.58143L14.8224 6.21178L16.3215 5.7999L16.3215 12.5836Z" fill="#181818"/>
<path d="M4.44043 7.35849V12.5836C4.44043 13.7741 7.35348 16.1708 9.13723 17.0375V5.26111L4.88672 7.48111L4.44043 7.35849Z" fill="#181818"/>
<path d="M10.4365 5.2616V17.0376C12.2202 16.1709 15.1333 13.7742 15.1333 12.5837V7.35859L14.6862 7.48121L10.4365 5.2616Z" fill="#181818"/>
</svg>
