<svg width="33" height="33" viewBox="0 0 33 33" fill="none" xmlns="http://www.w3.org/2000/svg">
<path d="M2 14.7891C2 13.8693 2 13.4094 2.11927 12.9859C2.22491 12.6107 2.39854 12.2579 2.6316 11.9446C2.89471 11.591 3.25992 11.3087 3.99035 10.744L14.9174 2.29616C15.4834 1.85857 15.7665 1.63977 16.079 1.55566C16.3547 1.48145 16.6453 1.48145 16.921 1.55566C17.2335 1.63977 17.5166 1.85857 18.0826 2.29616L29.0096 10.744C29.7401 11.3087 30.1053 11.591 30.3684 11.9446C30.6014 12.2579 30.7751 12.6107 30.8808 12.9859C31 13.4094 31 13.8693 31 14.7891V26.3754C31 28.1692 31 29.0661 30.6488 29.7512C30.3399 30.3538 29.8469 30.8439 29.2407 31.1509C28.5514 31.5 27.649 31.5 25.8444 31.5H7.15556C5.35093 31.5 4.44863 31.5 3.75937 31.1509C3.15306 30.8439 2.66012 30.3538 2.35121 29.7512C2 29.0661 2 28.1692 2 26.3754V14.7891Z" fill="black" stroke="black" stroke-width="3" stroke-linecap="round" stroke-linejoin="round"/>
</svg>
