<svg width="29" height="32" viewBox="0 0 29 32" fill="none" xmlns="http://www.w3.org/2000/svg">
<path fill-rule="evenodd" clip-rule="evenodd" d="M20.7032 22.5H4.29772C3.41473 22.5 2.76269 21.6287 3.09573 20.8275C4.64096 17.1225 8.27118 15 12.4998 15C16.7298 15 20.36 17.1225 21.9052 20.8275C22.2382 21.6287 21.5862 22.5 20.7032 22.5ZM7.39585 7.49999C7.39585 4.74248 9.68626 2.49998 12.4998 2.49998C15.3147 2.49998 17.6038 4.74248 17.6038 7.49999C17.6038 10.2575 15.3147 12.5 12.4998 12.5C9.68626 12.5 7.39585 10.2575 7.39585 7.49999ZM24.9446 22.045C24.017 17.8462 21.1154 14.7475 17.2963 13.3412C19.32 11.745 20.5003 9.16367 20.0665 6.33742C19.5638 3.05867 16.7795 0.434971 13.4186 0.0524711C8.77903 -0.476279 4.84385 3.06123 4.84385 7.49999C4.84385 9.86249 5.96162 11.9675 7.70464 13.3412C3.8843 14.7475 0.983956 17.8462 0.0550301 22.045C-0.281833 23.5712 0.97375 25 2.56747 25H22.4322C24.0272 25 25.2828 23.5712 24.9446 22.045Z" fill="white"/>
<path d="M22.7432 11.0098C23.2031 11.0557 23.6346 11.2607 23.9629 11.5918H23.9639C24.3378 11.9694 24.5469 12.4802 24.5469 13.0107V13.8896C24.933 14.0189 25.304 14.1927 25.6514 14.4102C26.2461 14.7825 26.7601 15.2721 27.1621 15.8486H27.1611C27.3672 16.1317 27.5009 16.4597 27.5488 16.8047L27.5645 16.959L27.5654 16.9756V16.9932C27.5736 17.2545 27.5299 17.5161 27.4355 17.7617C27.3415 18.0066 27.1999 18.23 27.0186 18.4189L27.0176 18.4199C26.8364 18.6082 26.6185 18.7596 26.376 18.8633H26.375C26.133 18.9665 25.8724 19.0208 25.6084 19.0205H25.5967V19.0195C25.3195 19.016 25.0466 18.9526 24.7959 18.834V18.835C24.7086 18.7938 24.6265 18.7437 24.5469 18.6904V19.4141C25.4664 19.7994 26.2922 20.296 26.9092 20.9688C27.6077 21.7306 28 22.6764 28 23.7988V23.8262C27.9673 24.9969 27.4954 26.1141 26.6777 26.9502C26.0883 27.5528 25.3498 27.9761 24.5469 28.1846V28.9893C24.5469 29.52 24.3375 30.0299 23.9639 30.4072C23.5893 30.7853 23.0788 30.9999 22.5449 31C22.011 31 21.5006 30.7857 21.126 30.4072V30.4062C20.7519 30.0284 20.543 29.5189 20.543 28.9893V28.0674C20.05 27.9099 19.578 27.6894 19.1396 27.4092C18.4715 26.982 17.8953 26.4254 17.4414 25.7734C17.1585 25.4303 17.0013 25.0005 17 24.5557V24.5537C16.9998 24.2892 17.0531 24.0271 17.1562 23.7832L17.2422 23.6045C17.3373 23.4308 17.459 23.272 17.6025 23.1338L17.752 23.0039C17.9073 22.8819 18.0806 22.7825 18.2676 22.7119C18.5006 22.6238 18.7481 22.5838 18.9961 22.5889V22.5879C19.0039 22.5878 19.0117 22.5888 19.0195 22.5889C19.0295 22.5892 19.0399 22.5884 19.0498 22.5889L19.0488 22.5898C19.3086 22.5957 19.564 22.6542 19.7988 22.7646L19.9814 22.8633C20.0992 22.9356 20.2087 23.0207 20.3076 23.1172L20.4473 23.2705L20.46 23.2852L20.4717 23.2998C20.4945 23.3299 20.5191 23.3585 20.543 23.3877V22.0918C18.7192 21.2012 17.5528 19.8522 17.5527 17.96V17.9414L17.5537 17.9229C17.5924 16.8715 18.0023 15.8668 18.7109 15.0908C19.2145 14.5395 19.846 14.1298 20.543 13.8936V13.0107C20.543 12.481 20.7512 11.97 21.126 11.5918L21.2725 11.458C21.6288 11.1633 22.0783 11 22.5449 11L22.7432 11.0098Z" fill="white" stroke="black" stroke-width="2"/>
</svg>
