<svg width="31" height="31" viewBox="0 0 31 31" fill="none" xmlns="http://www.w3.org/2000/svg">
<path d="M20.2405 18.7336C24.6031 18.7336 28.1396 15.2115 28.1396 10.8668C28.1396 6.52209 24.6031 3 20.2405 3C15.878 3 12.3415 6.52209 12.3415 10.8668C12.3415 12.8792 13.26 14.3429 13.26 14.3429L3.70766 23.8561C3.27902 24.283 2.67894 25.3929 3.70766 26.4174L4.80985 27.5151C5.23846 27.881 6.31614 28.3933 7.1979 27.5151L8.48379 26.2345C9.76969 27.5151 11.2393 26.7834 11.7904 26.0515C12.7089 24.7709 11.6067 23.4903 11.6067 23.4903L11.9741 23.1244C13.7375 24.8806 15.2806 23.8561 15.8318 23.1244C16.7503 21.8438 15.8318 20.5631 15.8318 20.5631C15.4644 19.8313 14.7296 19.8313 15.648 18.9166L16.7503 17.8189C17.632 18.5506 19.4445 18.7336 20.2405 18.7336Z" stroke="white" stroke-linejoin="round"/>
<path d="M22.9962 10.8669C22.9962 12.3825 21.7626 13.6111 20.2409 13.6111C18.719 13.6111 17.4854 12.3825 17.4854 10.8669C17.4854 9.35132 18.719 8.12268 20.2409 8.12268C21.7626 8.12268 22.9962 9.35132 22.9962 10.8669Z" stroke="white"/>
</svg>
