<svg width="31" height="31" viewBox="0 0 31 31" fill="none" xmlns="http://www.w3.org/2000/svg">
<path fill-rule="evenodd" clip-rule="evenodd" d="M20.5146 6.125C20.5146 4.25 18.6621 3 17.2146 3C16.2071 3 16.1284 3.765 15.9734 5.275C15.9046 5.9375 15.8221 6.7425 15.6396 7.6875C15.1571 10.19 13.4896 13.3875 11.8946 14.3437V21.75C11.8896 24.5625 12.8271 25.5 16.8896 25.5H21.6059C24.3259 25.5 24.9846 23.7087 25.2296 23.045L25.2459 23C25.3884 22.6175 25.6934 22.3163 26.0434 21.975C26.4309 21.5925 26.8734 21.1588 27.2021 20.5C27.5909 19.7212 27.5396 19.0287 27.4934 18.4125C27.4646 18.0387 27.4384 17.6937 27.5146 17.375C27.5946 17.0375 27.6971 16.7813 27.7959 16.5363C27.9746 16.0913 28.1396 15.6788 28.1396 14.875C28.1396 13 27.2046 11.7525 25.2459 11.7525H20.0146C20.0146 11.7525 20.5146 8 20.5146 6.125ZM7.51465 13C7.01737 13 6.54045 13.1975 6.18882 13.5492C5.83719 13.9008 5.63965 14.3777 5.63965 14.875V23.625C5.63965 24.1223 5.83719 24.5992 6.18882 24.9508C6.54045 25.3025 7.01737 25.5 7.51465 25.5C8.01193 25.5 8.48884 25.3025 8.84047 24.9508C9.1921 24.5992 9.38965 24.1223 9.38965 23.625V14.875C9.38965 14.3777 9.1921 13.9008 8.84047 13.5492C8.48884 13.1975 8.01193 13 7.51465 13Z" fill="white"/>
</svg>
