<svg width="39" height="39" viewBox="0 0 39 39" fill="none" xmlns="http://www.w3.org/2000/svg">
<mask id="path-1-outside-1_1705_2940" maskUnits="userSpaceOnUse" x="0" y="0" width="39" height="39" fill="black">
<rect fill="white" width="39" height="39"/>
<path d="M19.5 2C29.165 2 37 9.83502 37 19.5C37 29.165 29.165 37 19.5 37C9.83502 37 2 29.165 2 19.5C2 9.83502 9.83502 2 19.5 2Z"/>
</mask>
<path d="M19.5 2C29.165 2 37 9.83502 37 19.5C37 29.165 29.165 37 19.5 37C9.83502 37 2 29.165 2 19.5C2 9.83502 9.83502 2 19.5 2Z" fill="#4B4B4B"/>
<path d="M19.5 2V4C28.0604 4 35 10.9396 35 19.5H37H39C39 8.73045 30.2696 0 19.5 0V2ZM37 19.5H35C35 28.0604 28.0604 35 19.5 35V37V39C30.2696 39 39 30.2696 39 19.5H37ZM19.5 37V35C10.9396 35 4 28.0604 4 19.5H2H0C0 30.2696 8.73045 39 19.5 39V37ZM2 19.5H4C4 10.9396 10.9396 4 19.5 4V2V0C8.73045 0 0 8.73045 0 19.5H2Z" fill="#989898" fill-opacity="0.25" mask="url(#path-1-outside-1_1705_2940)"/>
<path d="M19.5 23.1094V25.2969M14.0312 18.219C14.5469 18.1875 15.1825 18.1875 16 18.1875H23C23.8175 18.1875 24.4532 18.1875 24.9688 18.219M14.0312 18.219C13.3878 18.2583 12.9313 18.3466 12.5416 18.5452C11.9242 18.8597 11.4222 19.3616 11.1076 19.9791C10.75 20.681 10.75 21.5998 10.75 23.4375V24.9688C10.75 26.8065 10.75 27.7252 11.1076 28.4272C11.4222 29.0446 11.9242 29.5465 12.5416 29.8611C13.2435 30.2188 14.1623 30.2188 16 30.2188H23C24.8377 30.2188 25.7565 30.2188 26.4584 29.8611C27.0759 29.5465 27.5778 29.0446 27.8923 28.4272C28.25 27.7252 28.25 26.8065 28.25 24.9688V23.4375C28.25 21.5998 28.25 20.681 27.8923 19.9791C27.5778 19.3616 27.0759 18.8597 26.4584 18.5452C26.0687 18.3466 25.6122 18.2583 24.9688 18.219M14.0312 18.219V16C14.0312 12.9797 16.4797 10.5312 19.5 10.5312C22.5203 10.5312 24.9688 12.9797 24.9688 16V18.219" stroke="#989898" stroke-linecap="round" stroke-linejoin="round"/>
</svg>
