<svg width="25" height="25" viewBox="0 0 25 25" fill="none" xmlns="http://www.w3.org/2000/svg">
<path d="M13.5413 2.08331C10.6649 2.08331 8.33301 4.41517 8.33301 7.29165C8.33301 7.86694 8.79937 8.33331 9.37467 8.33331C9.94997 8.33331 10.4163 7.86694 10.4163 7.29165C10.4163 5.56576 11.8155 4.16665 13.5413 4.16665H17.708C19.4339 4.16665 20.833 5.56576 20.833 7.29165V17.7083C20.833 19.4342 19.4339 20.8333 17.708 20.8333H13.5413C11.8155 20.8333 10.4163 19.4342 10.4163 17.7083C10.4163 17.133 9.94997 16.6666 9.37467 16.6666C8.79937 16.6666 8.33301 17.133 8.33301 17.7083C8.33301 20.5848 10.6649 22.9166 13.5413 22.9166H17.708C20.5845 22.9166 22.9163 20.5848 22.9163 17.7083V7.29165C22.9163 4.41517 20.5845 2.08331 17.708 2.08331H13.5413Z" fill="white"/>
<path d="M14.583 11.4583C15.1583 11.4583 15.6247 11.9247 15.6247 12.5C15.6247 13.0753 15.1583 13.5416 14.583 13.5416V11.4583Z" fill="white"/>
<path d="M5.95633 11.4583C6.04906 11.344 6.1379 11.233 6.22194 11.1271C6.47766 10.8045 6.69416 10.5212 6.84704 10.3182C6.92355 10.2166 6.9843 10.1348 7.02625 10.078L7.07476 10.0121L7.08776 9.99431L7.09236 9.98799C7.0924 9.98793 7.09288 9.98726 6.25016 9.37499L7.09236 9.98799C7.43051 9.52257 7.32786 8.87042 6.86243 8.53226C6.39704 8.19413 5.74565 8.29729 5.40749 8.76265L5.40455 8.76668L5.39388 8.78127L5.35038 8.8404C5.3119 8.89251 5.25501 8.96909 5.18272 9.0651C5.038 9.25731 4.83228 9.52647 4.5895 9.83267C4.09862 10.4518 3.47691 11.1959 2.90942 11.7634L2.17285 12.5L2.90942 13.2366C3.47691 13.8041 4.09862 14.5482 4.5895 15.1673C4.83228 15.4735 5.038 15.7427 5.18272 15.9349C5.25501 16.0309 5.3119 16.1075 5.35038 16.1596L5.39388 16.2187L5.40455 16.2333L5.40698 16.2367C5.74514 16.702 6.39704 16.8058 6.86243 16.4677C7.32786 16.1296 7.43104 15.4781 7.09288 15.0127L6.25016 15.625C7.09288 15.0127 7.09293 15.0128 7.09288 15.0127L7.08776 15.0057L7.07476 14.9879L7.02625 14.922C6.9843 14.8651 6.92355 14.7834 6.84704 14.6818C6.69416 14.4787 6.47766 14.1955 6.22194 13.8729C6.1379 13.767 6.04906 13.656 5.95633 13.5417H14.5835V11.4583H5.95633Z" fill="white"/>
</svg>
