<svg width="25" height="25" viewBox="0 0 25 25" fill="none" xmlns="http://www.w3.org/2000/svg">
<path fill-rule="evenodd" clip-rule="evenodd" d="M12.5038 1.26065C10.0707 1.26065 8.09151 3.23986 8.09151 5.6729V11.9761C8.09151 14.4092 10.0707 16.3884 12.5038 16.3884C14.9368 16.3884 16.916 14.4092 16.916 11.9761V5.67292C16.916 3.23987 14.9368 1.26065 12.5038 1.26065ZM5.57022 9.24457V12.284C5.57022 16.1063 8.6815 19.2175 12.5038 19.2175C16.326 19.2175 19.4373 16.1063 19.4373 12.284V9.24457H20.698V12.284C20.698 16.5901 17.3589 20.1312 13.1342 20.4542L13.1341 23.7393H16.2857V25H8.72184V23.7393H11.8734L11.8734 20.4542C7.64861 20.1312 4.30957 16.5901 4.30957 12.284V9.24457H5.57022ZM12.5038 0C15.6314 0 18.1767 2.54525 18.1767 5.67292V11.9761C18.1767 15.1038 15.6314 17.649 12.5038 17.649C9.37611 17.649 6.83086 15.1038 6.83086 11.9761V5.67292C6.83086 2.54525 9.37611 0 12.5038 0Z" fill="white"/>
<line x1="3.85355" y1="3.14645" x2="21.5312" y2="20.8241" stroke="white"/>
<line x1="4.35355" y1="2.64645" x2="22.0312" y2="20.3241" stroke="black"/>
</svg>
