<svg width="21" height="21" viewBox="0 0 21 21" fill="none" xmlns="http://www.w3.org/2000/svg">
<path fill-rule="evenodd" clip-rule="evenodd" d="M3.37598 10.2755V14.0255C3.37598 15.0255 4.12598 15.9005 5.12598 15.9005H8.00098L12.001 19.4005C12.126 19.5255 12.376 19.6505 12.501 19.6505C12.626 19.6505 12.751 19.6505 12.876 19.5255C13.126 19.4005 13.376 19.0255 13.376 18.6505V17.5255L4.37598 8.52545C3.75098 8.77545 3.37598 9.52545 3.37598 10.2755ZM13.376 12.7755V5.52545C13.376 5.15045 13.251 4.90045 12.876 4.65045C12.751 4.65045 12.626 4.65045 12.501 4.65045C12.376 4.65045 12.126 4.65045 12.001 4.90045L8.50098 8.02545L3.37598 2.90045L2.12598 4.15045L6.37598 8.40045L13.376 15.4005L17.876 19.9005L19.126 18.6505L13.376 12.7755Z" fill="#181818"/>
</svg>
