<svg width="30" height="31" viewBox="0 0 30 31" fill="none" xmlns="http://www.w3.org/2000/svg">
<path d="M15.0253 4.13739C10.8877 4.13739 7.52523 7.49989 7.52523 11.6374V15.2499C7.52523 16.0124 7.20023 17.1749 6.81273 17.8249L5.37523 20.2124C4.48773 21.6874 5.10023 23.3249 6.72523 23.8749C12.1127 25.6749 17.9253 25.6749 23.3128 23.8749C24.8253 23.3749 25.4878 21.5874 24.6628 20.2124L23.2253 17.8249C22.8503 17.1749 22.5253 16.0124 22.5253 15.2499V11.6374C22.5253 7.51239 19.1503 4.13739 15.0253 4.13739Z" stroke="black" stroke-width="3" stroke-miterlimit="10" stroke-linecap="round"/>
<path d="M17.3379 4.49993C16.9504 4.38743 16.5504 4.29993 16.1379 4.24993C14.9379 4.09993 13.7879 4.18743 12.7129 4.49993C13.0754 3.57493 13.9754 2.92493 15.0254 2.92493C16.0754 2.92493 16.9754 3.57493 17.3379 4.49993Z" stroke="black" stroke-width="3" stroke-miterlimit="10" stroke-linecap="round" stroke-linejoin="round"/>
<path d="M18.7754 24.3251C18.7754 26.3876 17.0879 28.0751 15.0254 28.0751C14.0004 28.0751 13.0504 27.6501 12.3754 26.9751C11.7004 26.3001 11.2754 25.3501 11.2754 24.3251" stroke="black" stroke-width="3" stroke-miterlimit="10"/>
</svg>
