<svg width="35" height="35" viewBox="0 0 35 35" fill="none" xmlns="http://www.w3.org/2000/svg">
<g clip-path="url(#clip0_1706_3142)">
<rect x="9" y="8" width="18" height="20" fill="white"/>
<path fill-rule="evenodd" clip-rule="evenodd" d="M9.18762 0.678685C11.4604 0.1736 14.2175 0 17.5 0C20.7825 0 23.5396 0.1736 25.8123 0.678685C28.105 1.1882 30.0104 2.058 31.4762 3.52376C32.942 4.98953 33.8118 6.89504 34.3214 9.18762C34.8264 11.4604 35 14.2175 35 17.5C35 20.7825 34.8264 23.5396 34.3214 25.8123C33.8118 28.105 32.942 30.0104 31.4762 31.4762C30.0104 32.942 28.105 33.8118 25.8123 34.3214C23.5396 34.8264 20.7825 35 17.5 35C14.2175 35 11.4604 34.8264 9.18762 34.3214C6.89504 33.8118 4.98953 32.942 3.52376 31.4762C2.058 30.0104 1.1882 28.105 0.678685 25.8123C0.1736 23.5396 0 20.7825 0 17.5C0 14.2175 0.1736 11.4604 0.678685 9.18762C1.1882 6.89504 2.058 4.98953 3.52376 3.52376C4.98953 2.058 6.89504 1.1882 9.18762 0.678685ZM23.7935 14.5807C26.0526 15.8715 26.0526 19.1287 23.7935 20.4195L16.0195 24.8619C13.9501 26.0444 11.3754 24.5502 11.3754 22.1667V12.8334C11.3754 10.4501 13.9501 8.95583 16.0195 10.1383L23.7935 14.5807Z" fill="#FA0505"/>
</g>
<defs>
<clipPath id="clip0_1706_3142">
<rect width="35" height="35" fill="white"/>
</clipPath>
</defs>
</svg>
