<svg width="30" height="31" viewBox="0 0 30 31" fill="none" xmlns="http://www.w3.org/2000/svg">
<path fill-rule="evenodd" clip-rule="evenodd" d="M24.8438 27.5H5.15726C4.09768 27.5 3.31523 26.4545 3.71487 25.493C5.56915 21.047 9.9254 18.5 14.9998 18.5C20.0757 18.5 24.432 21.047 26.2862 25.493C26.6859 26.4545 25.9034 27.5 24.8438 27.5ZM8.87501 9.49998C8.87501 6.19098 11.6235 3.49998 14.9998 3.49998C18.3776 3.49998 21.1246 6.19098 21.1246 9.49998C21.1246 12.809 18.3776 15.5 14.9998 15.5C11.6235 15.5 8.87501 12.809 8.87501 9.49998ZM29.9335 26.954C28.8204 21.9155 25.3384 18.197 20.7556 16.5095C23.184 14.5939 24.6004 11.4964 24.0798 8.1049C23.4765 4.1704 20.1354 1.02197 16.1023 0.562965C10.5348 -0.0715352 5.81261 4.17348 5.81261 9.49998C5.81261 12.335 7.15394 14.8609 9.24555 16.5095C4.66116 18.197 1.18075 21.9155 0.066036 26.954C-0.3382 28.7855 1.1685 30.5 3.08096 30.5H26.9186C28.8326 30.5 30.3393 28.7855 29.9335 26.954Z" fill="black"/>
<ellipse cx="15" cy="9.5" rx="7" ry="6.5" fill="black"/>
<ellipse cx="15" cy="24" rx="13" ry="6" fill="black"/>
</svg>
