<svg width="21" height="21" viewBox="0 0 21 21" fill="none" xmlns="http://www.w3.org/2000/svg">
<g clip-path="url(#clip0_1706_3378)">
<path d="M9.62587 0.900468C8.44073 0.912203 7.29978 1.35201 6.4134 2.13879C5.52702 2.92557 4.95496 4.00628 4.80271 5.18166C4.65046 6.35705 4.92828 7.54784 5.58494 8.5345C6.2416 9.52116 7.23283 10.2372 8.37587 10.5505C9.02739 9.55011 9.90829 8.71973 10.9454 8.12836C11.9824 7.537 13.1457 7.20174 14.3384 7.15047C14.4727 6.71707 14.5443 6.26666 14.5509 5.81297C14.5509 5.1668 14.4234 4.52697 14.1757 3.93014C13.9281 3.33332 13.5651 2.79121 13.1076 2.33488C12.6501 1.87855 12.1071 1.51696 11.5096 1.27082C10.9122 1.02468 10.272 0.898823 9.62587 0.900468ZM7.50087 12.3005H6.50087C5.01105 12.307 3.58413 12.9018 2.53066 13.9553C1.47719 15.0087 0.882447 16.4357 0.875869 17.9255C0.862992 18.0835 0.862992 18.2424 0.875869 18.4005H8.13837C7.47742 17.2611 7.12821 15.9677 7.12587 14.6505C7.12854 13.8525 7.25504 13.0597 7.50087 12.3005Z" fill="#181818"/>
<path d="M14.626 8.40045C13.3898 8.40045 12.1815 8.76701 11.1537 9.45377C10.1259 10.1405 9.32478 11.1166 8.85173 12.2587C8.37868 13.4007 8.25491 14.6574 8.49607 15.8698C8.73723 17.0821 9.33248 18.1958 10.2066 19.0699C11.0806 19.9439 12.1943 20.5392 13.4067 20.7804C14.619 21.0215 15.8757 20.8977 17.0178 20.4247C18.1598 19.9517 19.1359 19.1506 19.8227 18.1228C20.5094 17.095 20.876 15.8866 20.876 14.6505C20.876 12.9928 20.2175 11.4031 19.0454 10.231C17.8733 9.05893 16.2836 8.40045 14.626 8.40045ZM15.3635 18.7755H13.8885V17.313H15.3635V18.7755ZM15.3635 15.713H13.9135L13.7885 10.5255H15.4635L15.3635 15.713Z" fill="#181818"/>
</g>
<defs>
<clipPath id="clip0_1706_3378">
<rect width="20" height="20" fill="white" transform="translate(0.875977 0.900452)"/>
</clipPath>
</defs>
</svg>
