<svg width="33" height="31" viewBox="0 0 33 31" fill="none" xmlns="http://www.w3.org/2000/svg">
<g clip-path="url(#clip0_1705_2989)">
<path fill-rule="evenodd" clip-rule="evenodd" d="M22.8716 20.4423C24.5519 18.3418 25.5566 15.6774 25.5566 12.7783C25.5566 5.99718 20.0594 0.5 13.2783 0.5C6.49718 0.5 1 5.99718 1 12.7783C1 19.5594 6.49718 25.0566 13.2783 25.0566C16.1774 25.0566 18.8418 24.0519 20.9423 22.3716L28.671 30.1004C29.2038 30.6332 30.0676 30.6332 30.6004 30.1004C31.1332 29.5676 31.1332 28.7038 30.6004 28.171L22.8716 20.4423ZM13.2783 22.3417C7.99654 22.3417 3.71482 18.0601 3.71482 12.7783C3.71482 7.49654 7.99654 3.21482 13.2783 3.21482C18.5601 3.21482 22.8417 7.49654 22.8417 12.7783C22.8417 18.0601 18.5601 22.3417 13.2783 22.3417Z" fill="black"/>
<circle cx="13.5" cy="12.5" r="10.5" fill="black"/>
</g>
<defs>
<clipPath id="clip0_1705_2989">
<rect width="33" height="30" fill="white" transform="translate(0 0.5)"/>
</clipPath>
</defs>
</svg>
