<svg width="25" height="25" viewBox="0 0 25 25" fill="none" xmlns="http://www.w3.org/2000/svg">
<path d="M15.625 12.5C15.625 14.2259 14.2259 15.625 12.5 15.625C10.7741 15.625 9.375 14.2259 9.375 12.5C9.375 10.7741 10.7741 9.375 12.5 9.375C14.2259 9.375 15.625 10.7741 15.625 12.5Z" stroke="white" stroke-width="2" stroke-linecap="round" stroke-linejoin="round"/>
<path d="M13.4423 3.18755C13.2279 3.125 12.9853 3.125 12.5 3.125C12.0147 3.125 11.7721 3.125 11.5577 3.18755C11.244 3.2791 10.9668 3.46675 10.7652 3.72407C10.6275 3.89987 10.5374 4.12517 10.3572 4.57575C10.0981 5.22346 9.37909 5.55699 8.71726 5.33646L8.1227 5.13834C7.70094 4.99776 7.49005 4.92746 7.28329 4.91542C6.97957 4.89772 6.67729 4.96908 6.41355 5.12073C6.23401 5.22397 6.07683 5.38116 5.76247 5.69552C5.42835 6.02964 5.26129 6.19669 5.15517 6.38739C4.99924 6.66754 4.93328 6.9889 4.96624 7.30782C4.98867 7.5249 5.07641 7.74426 5.2519 8.18298C5.52672 8.87003 5.26233 9.65498 4.62783 10.0358L4.33876 10.2092C3.89616 10.4748 3.67485 10.6076 3.5141 10.7904C3.37185 10.9522 3.26459 11.1417 3.19905 11.3469C3.125 11.5787 3.125 11.8394 3.125 12.3607C3.125 12.978 3.125 13.2866 3.22356 13.5508C3.31066 13.7843 3.45231 13.9934 3.63671 14.161C3.8454 14.3506 4.12911 14.4642 4.69652 14.6911C5.2764 14.923 5.57496 15.5668 5.37746 16.1593L5.15334 16.8317C4.99811 17.2973 4.92049 17.5302 4.91344 17.759C4.90495 18.0341 4.96926 18.3065 5.09986 18.5486C5.20849 18.7502 5.38206 18.9237 5.72917 19.2708C6.07628 19.6179 6.24984 19.7915 6.4513 19.9001C6.69354 20.0307 6.96597 20.0951 7.24104 20.0866C7.46981 20.0795 7.70267 20.0019 8.16837 19.8467L8.71731 19.6636C9.37909 19.4431 10.0981 19.7766 10.3572 20.4243C10.5374 20.8748 10.6275 21.1001 10.7652 21.2759C10.9668 21.5332 11.244 21.7209 11.5577 21.8125C11.7721 21.875 12.0147 21.875 12.5 21.875C12.9853 21.875 13.2279 21.875 13.4423 21.8125C13.756 21.7209 14.0332 21.5332 14.2348 21.2759C14.3725 21.1001 14.4626 20.8748 14.6428 20.4243C14.9019 19.7766 15.6209 19.4431 16.2826 19.6639L16.8311 19.8468C17.2969 20.002 17.5298 20.0796 17.7585 20.0867C18.0336 20.0951 18.306 20.0308 18.5482 19.9002C18.7497 19.7916 18.9233 19.618 19.2704 19.2709C19.6175 18.9239 19.791 18.7502 19.8997 18.5488C20.0303 18.3066 20.0946 18.0341 20.0861 17.7591C20.0791 17.5303 20.0015 17.2974 19.8462 16.8317L19.6223 16.1598C19.4247 15.5671 19.7233 14.9231 20.3034 14.6911C20.8708 14.4642 21.1546 14.3506 21.3633 14.161C21.5477 13.9934 21.6894 13.7843 21.7765 13.5508C21.875 13.2866 21.875 12.978 21.875 12.3607C21.875 11.8394 21.875 11.5787 21.8009 11.3469C21.7354 11.1417 21.6281 10.9522 21.4859 10.7904C21.3251 10.6076 21.1039 10.4748 20.6613 10.2092L20.3718 10.0356C19.7373 9.65486 19.4728 8.86994 19.7477 8.1829C19.9231 7.7442 20.0109 7.52482 20.0333 7.30774C20.0662 6.98881 20.0003 6.66747 19.8444 6.3873C19.7382 6.19661 19.5712 6.02955 19.2371 5.69544C18.9227 5.38108 18.7655 5.2239 18.586 5.12066C18.3223 4.969 18.02 4.89765 17.7163 4.91533C17.5095 4.92739 17.2986 4.99768 16.8769 5.13826L16.2827 5.33632C15.6209 5.55692 14.9019 5.22344 14.6428 4.57575C14.4626 4.12517 14.3725 3.89987 14.2348 3.72407C14.0332 3.46675 13.756 3.2791 13.4423 3.18755Z" stroke="white" stroke-width="2" stroke-linecap="round" stroke-linejoin="round"/>
</svg>
