<svg width="16" height="15" viewBox="0 0 16 15" fill="none" xmlns="http://www.w3.org/2000/svg">
<g clip-path="url(#clip0_1705_3108)">
<path fill-rule="evenodd" clip-rule="evenodd" d="M12.1783 9.23077C11.1572 9.23077 10.2658 9.76443 9.75294 10.5646L6.66353 8.79924C6.86315 8.40693 6.98603 7.96962 6.98603 7.5C6.98603 7.20981 6.93007 6.93519 6.85046 6.67095L10.0645 4.83462C10.5912 5.40577 11.3401 5.76923 12.1783 5.76923C13.7718 5.76923 15.063 4.47808 15.063 2.88462C15.063 1.29115 13.7718 0 12.1783 0C10.5849 0 9.29372 1.29115 9.29372 2.88462C9.29372 3.17481 9.34967 3.44942 9.42929 3.71422L6.21526 5.55C5.68853 4.97942 4.93968 4.61538 4.10141 4.61538C2.50795 4.61538 1.2168 5.90654 1.2168 7.5C1.2168 9.09346 2.50795 10.3846 4.10141 10.3846C4.7591 10.3846 5.35852 10.1561 5.84371 9.78575L9.32545 11.8039C9.31391 11.9077 9.29372 12.0081 9.29372 12.1154C9.29372 13.7088 10.5849 15 12.1783 15C13.7718 15 15.063 13.7088 15.063 12.1154C15.063 10.5219 13.7718 9.23077 12.1783 9.23077Z" fill="white"/>
</g>
<defs>
<clipPath id="clip0_1705_3108">
<rect width="15" height="15" fill="white" transform="translate(0.639648)"/>
</clipPath>
</defs>
</svg>
