<svg width="25" height="25" viewBox="0 0 25 25" fill="none" xmlns="http://www.w3.org/2000/svg">
<path d="M23.7245 21.2585H1.27551C0.571088 21.2585 0 21.8296 0 22.5341C0 23.2385 0.571088 23.8096 1.27551 23.8096H23.7245C24.4289 23.8096 25 23.2385 25 22.5341C25 21.8296 24.4289 21.2585 23.7245 21.2585Z" fill="white"/>
<path d="M2.59396 19.3878H6.59055C7.03673 19.3878 7.39838 19.0261 7.39838 18.58V7.52554C7.39838 7.07936 7.03673 6.71771 6.59055 6.71771H2.59396C2.14778 6.71771 1.78613 7.07936 1.78613 7.52554V18.58C1.78613 19.0261 2.14778 19.3878 2.59396 19.3878Z" fill="white"/>
<path d="M10.5022 19.3878H14.4988C14.9449 19.3878 15.3066 19.0261 15.3066 18.5799V1.99831C15.3066 1.55214 14.9449 1.19049 14.4988 1.19049H10.5022C10.056 1.19049 9.69434 1.55214 9.69434 1.99831V18.5799C9.69434 19.0261 10.056 19.3878 10.5022 19.3878Z" fill="white"/>
<path d="M18.4094 19.3878H22.406C22.8522 19.3878 23.2138 19.0261 23.2138 18.58V9.65139C23.2138 9.20522 22.8522 8.84357 22.406 8.84357H18.4094C17.9632 8.84357 17.6016 9.20522 17.6016 9.65139V18.58C17.6016 19.0261 17.9632 19.3878 18.4094 19.3878Z" fill="white"/>
</svg>
