<svg width="26" height="26" viewBox="0 0 26 26" fill="none" xmlns="http://www.w3.org/2000/svg">
<rect x="5.875" y="5.40039" width="15" height="15" fill="white"/>
<path fill-rule="evenodd" clip-rule="evenodd" d="M10.3665 1.90079C10.0621 2.1602 9.90987 2.28993 9.7473 2.39888C9.37468 2.64863 8.95619 2.82197 8.5161 2.90885C8.32412 2.94677 8.12477 2.96267 7.72608 2.99448C6.72435 3.07443 6.22348 3.11439 5.80562 3.26199C4.83912 3.60337 4.07889 4.36359 3.73752 5.33009C3.58992 5.74795 3.54995 6.24883 3.47 7.25055C3.43819 7.64924 3.42229 7.84859 3.38438 8.04058C3.29749 8.48067 3.12415 8.89915 2.8744 9.27178C2.76545 9.43434 2.63574 9.58654 2.37632 9.89095C1.72452 10.6558 1.3986 11.0382 1.2075 11.4381C0.765467 12.363 0.765467 13.438 1.2075 14.3628C1.39862 14.7627 1.72452 15.1451 2.37632 15.91C2.6357 16.2143 2.76545 16.3666 2.8744 16.5291C3.12415 16.9017 3.29749 17.3202 3.38438 17.7603C3.42229 17.9523 3.43819 18.1517 3.47 18.5503C3.54995 19.5521 3.58992 20.0529 3.73752 20.4708C4.07889 21.4373 4.83912 22.1976 5.80562 22.539C6.22348 22.6865 6.72435 22.7265 7.72608 22.8065C8.12477 22.8382 8.32412 22.8542 8.5161 22.8921C8.95619 22.9789 9.37468 23.1523 9.7473 23.4021C9.90987 23.511 10.0621 23.6407 10.3665 23.9001C11.1314 24.5519 11.5137 24.8778 11.9136 25.0689C12.8385 25.5109 13.9135 25.5109 14.8384 25.0689C15.2382 24.8778 15.6206 24.5519 16.3855 23.9001C16.6899 23.6407 16.8421 23.511 17.0046 23.4021C17.3772 23.1523 17.7957 22.9789 18.2359 22.8921C18.4279 22.8542 18.6272 22.8382 19.0259 22.8065C20.0276 22.7265 20.5285 22.6865 20.9463 22.539C21.9128 22.1976 22.6731 21.4373 23.0145 20.4708C23.162 20.0529 23.202 19.5521 23.282 18.5503C23.3137 18.1517 23.3297 17.9523 23.3676 17.7603C23.4545 17.3202 23.6279 16.9017 23.8776 16.5291C23.9865 16.3666 24.1162 16.2143 24.3756 15.91C25.0275 15.1451 25.3533 14.7627 25.5445 14.3628C25.9865 13.438 25.9865 12.363 25.5445 11.4381C25.3533 11.0382 25.0275 10.6558 24.3756 9.89095C24.1162 9.58654 23.9865 9.43434 23.8776 9.27178C23.6279 8.89915 23.4545 8.48067 23.3676 8.04058C23.3297 7.84859 23.3137 7.64924 23.282 7.25055C23.202 6.24883 23.162 5.74795 23.0145 5.33009C22.6731 4.36359 21.9128 3.60337 20.9463 3.26199C20.5285 3.11439 20.0276 3.07443 19.0259 2.99448C18.6272 2.96267 18.4279 2.94677 18.2359 2.90885C17.7957 2.82197 17.3772 2.64863 17.0046 2.39888C16.8421 2.28993 16.6899 2.16022 16.3855 1.90079C15.6206 1.24899 15.2382 0.923092 14.8384 0.73198C13.9135 0.289942 12.8385 0.289942 11.9136 0.73198C11.5137 0.92308 11.1314 1.24899 10.3665 1.90079ZM18.8429 10.2294C19.2401 9.83208 19.2401 9.18795 18.8429 8.79065C18.4456 8.39337 17.8014 8.39337 17.4041 8.79065L11.3414 14.8535L9.3478 12.86C8.95052 12.4627 8.30638 12.4627 7.90909 12.86C7.5118 13.2572 7.5118 13.9013 7.90909 14.2987L10.622 17.0116C11.0192 17.4088 11.6634 17.4088 12.0607 17.0116L18.8429 10.2294Z" fill="#C54B8C"/>
</svg>
