<svg width="32" height="28" viewBox="0 0 32 28" fill="none" xmlns="http://www.w3.org/2000/svg">
<path d="M1 9.05347L15.7959 26.4004L9.21996 9.05347H1Z" fill="#82C8DC" stroke="black" stroke-width="0.5"/>
<path d="M22.3709 9.05347L15.7949 26.4004L30.5908 9.05347H22.3709Z" fill="#B4E6F0" stroke="black" stroke-width="0.5"/>
<path d="M15.7967 9.05351H22.3726L15.7967 1.40045L9.2207 9.05351H15.7967Z" fill="#D9FFFF" stroke="black" stroke-width="0.5"/>
<path d="M15.7967 9.05347H9.2207L15.7967 26.4004L22.3726 9.05347H15.7967Z" fill="#A0DCE6" stroke="black" stroke-width="0.5"/>
<path d="M7.63265 1.40045L1 9.05351H9.21996L7.63265 1.40045Z" fill="#A0DCE6" stroke="black" stroke-width="0.5"/>
<path d="M30.592 9.05351L23.9594 1.40045L22.3721 9.05351H30.592Z" fill="#EBFFFF" stroke="black" stroke-width="0.5"/>
<path d="M23.9582 1.40045H15.7949L22.3709 9.05351L23.9582 1.40045Z" fill="#B4E6F0" stroke="black" stroke-width="0.5"/>
<path d="M15.7961 1.40045H7.63281L9.22012 9.05351L15.7961 1.40045Z" fill="#B4E6F0" stroke="black" stroke-width="0.5"/>
</svg>
