<svg width="27" height="27" viewBox="0 0 27 27" fill="none" xmlns="http://www.w3.org/2000/svg">
<path d="M17.1872 5.50551C15.5882 2.72764 14.7884 1.33868 13.592 1.3209C12.3958 1.30313 11.5949 2.66828 9.99313 5.39858L9.57869 6.10483C9.12347 6.8807 8.89586 7.26864 8.54115 7.52152C8.18661 7.77464 7.74495 7.86376 6.86157 8.04241L6.05759 8.20497C2.9493 8.83329 1.39523 9.14736 1.02497 10.2823C0.654721 11.4172 1.71351 12.6214 3.83113 15.0294L4.37897 15.6525C4.98071 16.3369 5.28168 16.6791 5.41675 17.0988C5.55203 17.5185 5.50623 17.9684 5.41488 18.8681L5.33152 19.6872C5.00967 22.8534 4.84885 24.4366 5.81632 25.1558C6.78401 25.875 8.23918 25.254 11.1497 24.0121L11.9027 23.6908C12.7297 23.3379 13.1434 23.1613 13.5816 23.1679C14.0199 23.1744 14.4333 23.3631 15.2598 23.7407L16.0126 24.0844C18.9219 25.4128 20.3766 26.0772 21.3448 25.3867C22.313 24.6963 22.1537 23.1083 21.8349 19.9326L21.7524 19.111C21.6617 18.2086 21.6166 17.7573 21.7522 17.3416C21.8878 16.9258 22.1889 16.5927 22.7914 15.9262L23.3398 15.3196C25.4597 12.9743 26.5197 11.8018 26.1505 10.6559C25.7812 9.50998 24.2276 9.1496 21.12 8.42895L20.316 8.24229C19.4329 8.0375 18.9915 7.93523 18.6369 7.67161C18.2826 7.40822 18.0553 7.01359 17.6008 6.22413L17.1872 5.50551Z" stroke="#1C274C"/>
</svg>
