<svg width="26" height="29" viewBox="0 0 26 29" fill="none" xmlns="http://www.w3.org/2000/svg">
<path d="M13 17.9722V20.75M6.125 11.7622C6.7732 11.7222 7.57231 11.7222 8.6 11.7222H17.4C18.4277 11.7222 19.2268 11.7222 19.875 11.7622M6.125 11.7622C5.31606 11.8121 4.74215 11.9243 4.25229 12.1764C3.47612 12.5758 2.84508 13.2132 2.4496 13.9972C2 14.8886 2 16.0553 2 18.3889V20.3333C2 22.6669 2 23.8336 2.4496 24.725C2.84508 25.509 3.47612 26.1464 4.25229 26.5458C5.13467 27 6.28978 27 8.6 27H17.4C19.7103 27 20.8653 27 21.7477 26.5458C22.5239 26.1464 23.1549 25.509 23.5504 24.725C24 23.8336 24 22.6669 24 20.3333V18.3889C24 16.0553 24 14.8886 23.5504 13.9972C23.1549 13.2132 22.5239 12.5758 21.7477 12.1764C21.2578 11.9243 20.6839 11.8121 19.875 11.7622M6.125 11.7622V8.94444C6.125 5.10914 9.20305 2 13 2C16.7969 2 19.875 5.10914 19.875 8.94444V11.7622" stroke="white" stroke-width="3" stroke-linecap="round" stroke-linejoin="round"/>
</svg>
