<svg width="19" height="12" viewBox="0 0 19 12" fill="none" xmlns="http://www.w3.org/2000/svg">
<path d="M0.698242 5.89098C0.722242 5.9379 0.752242 6.00243 0.788242 6.08455C0.824242 6.16667 0.914242 6.33679 1.05824 6.59489C1.20224 6.85299 1.35824 7.09936 1.52624 7.334C1.69424 7.56864 1.92824 7.8502 2.22824 8.17869C2.52824 8.50719 2.84024 8.81808 3.16424 9.11138C3.48824 9.40468 3.89024 9.69211 4.37024 9.97367C4.85024 10.2552 5.34224 10.5016 5.84624 10.7128C6.35024 10.924 6.93824 11.0882 7.61024 11.2055C8.28224 11.3228 8.97824 11.3874 9.69824 11.3991C10.4182 11.4108 11.1142 11.3463 11.7862 11.2055C12.4582 11.0647 13.0522 10.8946 13.5682 10.6952C14.0842 10.4957 14.5702 10.2552 15.0262 9.97367C15.4822 9.69211 15.8842 9.39881 16.2322 9.09378C16.5802 8.78875 16.8922 8.48959 17.1682 8.19629C17.4442 7.90299 17.6782 7.6097 17.8702 7.3164C18.0622 7.0231 18.2182 6.7826 18.3382 6.59489C18.4582 6.40718 18.5482 6.23707 18.6082 6.08455L18.6982 5.89098C18.6862 5.84405 18.6562 5.77952 18.6082 5.6974C18.5602 5.61528 18.4702 5.45103 18.3382 5.20466C18.2062 4.95829 18.0502 4.71192 17.8702 4.46555C17.6902 4.21918 17.4562 3.93175 17.1682 3.60326C16.8802 3.27476 16.5682 2.96974 16.2322 2.68817C15.8962 2.4066 15.4942 2.11917 15.0262 1.82588C14.5582 1.53258 14.0662 1.28621 13.5502 1.08677C13.0342 0.887325 12.4462 0.723079 11.7862 0.594028C11.1262 0.464977 10.4302 0.400452 9.69824 0.400452C8.96624 0.400452 8.27024 0.464977 7.61024 0.594028C6.95024 0.723079 6.35624 0.887325 5.82824 1.08677C5.30024 1.28621 4.81424 1.53258 4.37024 1.82588C3.92624 2.11917 3.52424 2.4066 3.16424 2.68817C2.80424 2.96974 2.49224 3.27476 2.22824 3.60326C1.96424 3.93175 1.73024 4.21918 1.52624 4.46555C1.32224 4.71192 1.16624 4.95829 1.05824 5.20466C0.950242 5.45103 0.860242 5.62114 0.788242 5.715L0.698242 5.89098ZM6.33224 5.89098C6.33224 4.98762 6.65624 4.21332 7.30424 3.56806C7.95224 2.92281 8.75024 2.60018 9.69824 2.60018C10.6462 2.60018 11.4442 2.92281 12.0922 3.56806C12.7402 4.21332 13.0702 4.98762 13.0822 5.89098C13.0942 6.79433 12.7642 7.5745 12.0922 8.23149C11.4202 8.88847 10.6222 9.2111 9.69824 9.19937C8.77424 9.18764 7.97624 8.86501 7.30424 8.23149C6.63224 7.59797 6.30824 6.8178 6.33224 5.89098ZM7.44824 5.89098C7.44824 6.50103 7.67024 7.0231 8.11424 7.45718C8.55824 7.89126 9.08624 8.10244 9.69824 8.09071C10.3102 8.07897 10.8382 7.8678 11.2822 7.45718C11.7262 7.04657 11.9482 6.5245 11.9482 5.89098C11.9482 5.25745 11.7262 4.74125 11.2822 4.34237C10.8382 3.94348 10.3102 3.72644 9.69824 3.69125C9.08624 3.65605 8.55824 3.87309 8.11424 4.34237L9.69824 5.89098H7.44824Z" fill="white"/>
</svg>
