<svg width="24" height="24" viewBox="0 0 24 24" fill="none" xmlns="http://www.w3.org/2000/svg">
<path d="M16.03 18.616L21.324 13.763C21.4208 13.6742 21.5341 13.6054 21.6575 13.5604C21.7809 13.5154 21.9119 13.4952 22.0431 13.5008C22.1743 13.5065 22.3032 13.538 22.4222 13.5934C22.5413 13.6489 22.6482 13.7272 22.737 13.824C22.8258 13.9208 22.8946 14.0341 22.9396 14.1575C22.9846 14.2809 23.0048 14.4119 22.9991 14.5431C22.9935 14.6743 22.962 14.8031 22.9066 14.9222C22.8511 15.0412 22.7728 15.1482 22.676 15.237L16.676 20.737C16.486 20.9112 16.2362 21.0053 15.9785 20.9997C15.7208 20.9941 15.4752 20.8893 15.293 20.707L12.293 17.707C12.1108 17.5184 12.01 17.2658 12.0123 17.0036C12.0146 16.7414 12.1198 16.4906 12.3052 16.3052C12.4906 16.1198 12.7414 16.0146 13.0036 16.0123C13.2658 16.01 13.5184 16.1108 13.707 16.293L16.03 18.616ZM1 20C1.00242 18.2088 1.53864 16.459 2.54021 14.974C3.54177 13.4891 4.96321 12.3363 6.623 11.663C5.77385 10.8717 5.22772 9.8086 5.07895 8.65745C4.93017 7.5063 5.1881 6.33934 5.80817 5.35812C6.42824 4.3769 7.37152 3.64304 8.47509 3.2833C9.57866 2.92355 10.7732 2.96051 11.8524 3.38779C12.9317 3.81506 13.8278 4.60583 14.386 5.6235C14.9442 6.64118 15.1295 7.82185 14.9099 8.9616C14.6902 10.1014 14.0794 11.1286 13.183 11.8659C12.2865 12.6033 11.1607 13.0044 10 13C8.31724 13.0021 6.69136 13.6093 5.41925 14.7109C4.14714 15.8125 3.31366 17.3348 3.071 19H10C10.2652 19 10.5196 19.1053 10.7071 19.2929C10.8946 19.4804 11 19.7348 11 20C11 20.2652 10.8946 20.5196 10.7071 20.7071C10.5196 20.8946 10.2652 21 10 21H2C1.73478 21 1.48043 20.8946 1.29289 20.7071C1.10536 20.5196 1 20.2652 1 20ZM7 7.99999C7 8.59333 7.17595 9.17335 7.50559 9.6667C7.83524 10.16 8.30377 10.5446 8.85195 10.7716C9.40013 10.9987 10.0033 11.0581 10.5853 10.9423C11.1672 10.8266 11.7018 10.5409 12.1213 10.1213C12.5409 9.70175 12.8266 9.1672 12.9424 8.58526C13.0581 8.00332 12.9987 7.40012 12.7716 6.85194C12.5446 6.30376 12.1601 5.83523 11.6667 5.50558C11.1734 5.17594 10.5933 4.99999 10 4.99999C9.20435 4.99999 8.44129 5.31606 7.87868 5.87867C7.31607 6.44128 7 7.20434 7 7.99999Z" fill="white"/>
</svg>
