<svg width="30" height="31" viewBox="0 0 30 31" fill="none" xmlns="http://www.w3.org/2000/svg">
<path fill-rule="evenodd" clip-rule="evenodd" d="M2.5 11.75C2.5 8.98857 4.73857 6.75 7.5 6.75H16.25C19.0114 6.75 21.25 8.98857 21.25 11.75V11.8396L25.2525 9.53885C26.2524 8.96401 27.5 9.68585 27.5 10.8393V20.186C27.5 21.2754 26.3754 22.0015 25.3825 21.553L21.2319 19.6781C21.0147 22.2391 18.8672 24.25 16.25 24.25H7.5C4.73857 24.25 2.5 22.0114 2.5 19.25V11.75ZM21.25 16.943L25 18.637V12.5676L21.25 14.7233V16.943ZM18.75 11.75C18.75 10.3693 17.6307 9.25 16.25 9.25H7.5C6.11929 9.25 5 10.3693 5 11.75V19.25C5 20.6307 6.11929 21.75 7.5 21.75H16.25C17.6307 21.75 18.75 20.6307 18.75 19.25V11.75Z" fill="white"/>
<line x1="2.03129" y1="3.92434" x2="23.2534" y2="25.1464" stroke="white"/>
<line x1="2.63187" y1="3.32406" x2="23.854" y2="24.5461" stroke="black"/>
</svg>
